<svg width="70" height="79" viewBox="0 0 70 79" fill="none" xmlns="http://www.w3.org/2000/svg">
<path d="M22.581 31.5025C22.581 36.7824 18.7528 40.7163 14.4774 40.7163C10.2022 40.7163 6.37411 36.7826 6.37411 31.5025C6.37411 26.224 10.2018 22.2908 14.4774 22.2908C18.7533 22.2908 22.581 26.2241 22.581 31.5025Z" stroke="#754DE8" stroke-width="4"/>
<path d="M14.4778 50.2808L12.9644 48.5293L8.39087 43.2362C6.68015 44.5296 5.18113 46.3719 4.05416 48.6639L14.4778 50.2808ZM14.4778 50.2808L15.9911 48.5292M14.4778 50.2808L15.9911 48.5292M15.9911 48.5292L20.5643 43.2362M15.9911 48.5292L20.5643 43.2362M20.5643 43.2362C22.2751 44.5296 23.7742 46.372 24.9013 48.664C26.092 51.0854 26.7937 53.8771 26.9308 56.7938H2.02482C2.16189 53.8772 2.86362 51.0856 4.0541 48.664L20.5643 43.2362Z" stroke="#754DE8" stroke-width="4"/>
<path d="M63.6256 31.5025C63.6256 36.7824 59.7974 40.7163 55.5219 40.7163C51.2466 40.7163 47.4187 36.7826 47.4187 31.5025C47.4187 26.224 51.2464 22.2908 55.5219 22.2908C59.7979 22.2908 63.6256 26.2241 63.6256 31.5025Z" stroke="#754DE8" stroke-width="4"/>
<path d="M55.5222 50.2808L54.0088 48.5293L49.4352 43.2363C47.7245 44.5297 46.2255 46.372 45.0985 48.6639L55.5222 50.2808ZM55.5222 50.2808L57.0355 48.5292M55.5222 50.2808L57.0355 48.5292M57.0355 48.5292L61.6087 43.2362M57.0355 48.5292L61.6087 43.2362M61.6087 43.2362C63.3195 44.5296 64.8186 46.372 65.9455 48.664C67.1362 51.0856 67.8381 53.8772 67.9752 56.7938H43.0692C43.2063 53.8772 43.908 51.0856 45.0985 48.664L61.6087 43.2362Z" stroke="#754DE8" stroke-width="4"/>
<path d="M38.5172 29.1153C38.5174 29.1155 38.5175 29.1156 38.5176 29.1158L38.5172 29.1153Z" stroke="#754DE8" stroke-width="4"/>
<mask id="path-6-inside-1_1_138" fill="white">
<path d="M30.848 46.2766H42.0191C42.675 46.2766 43.2067 45.6864 43.2067 44.9585C43.2067 44.2305 42.675 43.6403 42.0191 43.6403H30.848L32.9689 41.2865C33.4327 40.7717 33.4327 39.9371 32.9689 39.4223C32.5052 38.9078 31.7531 38.9078 31.2894 39.4223L27.1413 44.0263C26.6775 44.5412 26.6775 45.3757 27.1413 45.8904L31.2894 50.4946C31.5214 50.7521 31.8252 50.8809 32.1292 50.8809C32.4331 50.8809 32.7371 50.7521 32.969 50.4948C33.4329 49.98 33.4329 49.1454 32.969 48.6308L30.848 46.2766Z"/>
</mask>
<path d="M30.848 46.2766V42.2766H21.8601L27.8762 48.954L30.848 46.2766ZM30.848 43.6403L27.8763 40.9628L21.8596 47.6403H30.848V43.6403ZM32.9689 41.2865L35.9405 43.9641L35.9406 43.9639L32.9689 41.2865ZM32.9689 39.4223L35.9406 36.7448L35.9401 36.7443L32.9689 39.4223ZM31.2894 39.4223L28.3182 36.7443L28.3177 36.7448L31.2894 39.4223ZM27.1413 44.0263L24.1696 41.3489L24.1696 41.3489L27.1413 44.0263ZM27.1413 45.8904L30.1131 43.213L30.1126 43.2124L27.1413 45.8904ZM31.2894 50.4946L28.3176 53.172L28.3177 53.1721L31.2894 50.4946ZM32.969 50.4948L35.9398 53.1734L35.9408 53.1723L32.969 50.4948ZM32.969 48.6308L29.9973 51.3082L29.9978 51.3088L32.969 48.6308ZM30.848 50.2766H42.0191V42.2766H30.848V50.2766ZM42.0191 50.2766C45.2663 50.2766 47.2067 47.493 47.2067 44.9585H39.2067C39.2067 43.8799 40.0837 42.2766 42.0191 42.2766V50.2766ZM47.2067 44.9585C47.2067 42.4239 45.2663 39.6403 42.0191 39.6403V47.6403C40.0837 47.6403 39.2067 46.037 39.2067 44.9585H47.2067ZM42.0191 39.6403H30.848V47.6403H42.0191V39.6403ZM33.8196 46.3179L35.9405 43.9641L29.9972 38.6089L27.8763 40.9628L33.8196 46.3179ZM35.9406 43.9639C37.7755 41.9274 37.7755 38.7814 35.9406 36.7448L29.9971 42.0997C29.5059 41.5545 29.3168 40.9105 29.3168 40.3544C29.3168 39.7983 29.5059 39.1543 29.9971 38.6091L35.9406 43.9639ZM35.9401 36.7443C33.8878 34.4672 30.3706 34.4672 28.3182 36.7443L34.2607 42.1003C33.75 42.6668 32.9819 43.0364 32.1292 43.0364C31.2764 43.0364 30.5083 42.6668 29.9976 42.1003L35.9401 36.7443ZM28.3177 36.7448L24.1696 41.3489L30.1131 46.7038L34.2612 42.0997L28.3177 36.7448ZM24.1696 41.3489C22.335 43.3852 22.3343 46.5316 24.1701 48.5684L30.1126 43.2124C30.6043 43.7579 30.7934 44.4023 30.7934 44.9584C30.7934 45.5146 30.6043 46.1586 30.1131 46.7038L24.1696 41.3489ZM24.1695 48.5678L28.3176 53.172L34.2612 47.8173L30.1131 43.213L24.1695 48.5678ZM28.3177 53.1721C29.2909 54.2522 30.6665 54.8809 32.1292 54.8809V46.8809C32.984 46.8809 33.7518 47.2519 34.2612 47.8172L28.3177 53.1721ZM32.1292 54.8809C33.5913 54.8809 34.9666 54.2527 35.9398 53.1734L29.9983 47.8163C30.5076 47.2514 31.2749 46.8809 32.1292 46.8809V54.8809ZM35.9408 53.1723C37.7754 51.136 37.7761 47.9896 35.9403 45.9528L29.9978 51.3088C29.5061 50.7632 29.3169 50.1189 29.3169 49.5627C29.3169 49.0066 29.5061 48.3626 29.9973 47.8174L35.9408 53.1723ZM35.9408 45.9533L33.8197 43.5991L27.8762 48.954L29.9973 51.3082L35.9408 45.9533Z" fill="#754DE8" mask="url(#path-6-inside-1_1_138)"/>
</svg>
