<svg width="72" height="82" viewBox="0 0 72 82" fill="none" xmlns="http://www.w3.org/2000/svg">
<path d="M54.3966 26.4467C51.9281 26.4467 49.9199 28.8197 49.9199 31.7367C49.9199 34.6537 51.9281 37.0267 54.3966 37.0267C56.8652 37.0267 58.8733 34.6537 58.8733 31.7367C58.8733 28.8197 56.8652 26.4467 54.3966 26.4467ZM54.3966 34.9668C52.8894 34.9668 51.6631 33.5178 51.6631 31.7367C51.6631 29.9556 52.8894 28.5066 54.3966 28.5066C55.9039 28.5066 57.1301 29.9556 57.1301 31.7367C57.1301 33.5178 55.904 34.9668 54.3966 34.9668Z" fill="#754DE8" stroke="#754DE8"/>
<path d="M54.3966 33.1619C55.0627 33.1619 55.6027 32.5238 55.6027 31.7367C55.6027 30.9495 55.0627 30.3114 54.3966 30.3114C53.7304 30.3114 53.1904 30.9495 53.1904 31.7367C53.1904 32.5238 53.7304 33.1619 54.3966 33.1619Z" fill="#754DE8" stroke="#754DE8"/>
<path d="M11.585 60.6429C9.11644 60.6429 7.10828 63.016 7.10828 65.933C7.10828 68.85 9.11644 71.223 11.585 71.223C14.0535 71.223 16.0617 68.85 16.0617 65.933C16.0617 63.016 14.0535 60.6429 11.585 60.6429ZM11.585 69.1631C10.0777 69.1631 8.85148 67.714 8.85148 65.933C8.85148 64.1519 10.0777 62.7029 11.585 62.7029C13.0922 62.7029 14.3185 64.1519 14.3185 65.933C14.3185 67.714 13.0924 69.1631 11.585 69.1631Z" fill="#754DE8" stroke="#754DE8"/>
<path d="M11.585 67.3584C12.2512 67.3584 12.7912 66.7202 12.7912 65.9331C12.7912 65.1459 12.2512 64.5078 11.585 64.5078C10.9189 64.5078 10.3789 65.1459 10.3789 65.9331C10.3789 66.7202 10.9189 67.3584 11.585 67.3584Z" fill="#754DE8" stroke="#754DE8"/>
<path d="M23.9933 5.94885C21.5248 5.94885 19.5166 8.32187 19.5166 11.2389C19.5166 14.1559 21.5248 16.5289 23.9933 16.5289C26.4618 16.5289 28.47 14.1559 28.47 11.2389C28.47 8.32187 26.4618 5.94885 23.9933 5.94885ZM23.9933 14.469C22.4861 14.469 21.2598 13.02 21.2598 11.2389C21.2598 9.45781 22.4861 8.00876 23.9933 8.00876C25.5005 8.00876 26.7268 9.45781 26.7268 11.2389C26.7268 13.02 25.5005 14.469 23.9933 14.469Z" fill="#754DE8" stroke="#754DE8"/>
<path d="M23.9942 12.6643C24.6604 12.6643 25.2004 12.0261 25.2004 11.239C25.2004 10.4518 24.6604 9.81372 23.9942 9.81372C23.3281 9.81372 22.7881 10.4518 22.7881 11.239C22.7881 12.0261 23.3281 12.6643 23.9942 12.6643Z" fill="#754DE8" stroke="#754DE8"/>
<path d="M43.8035 59.9258H34.7779C34.2964 59.9258 33.9062 60.3868 33.9062 60.9557C33.9062 61.5246 34.2964 61.9857 34.7779 61.9857H43.8035C44.285 61.9857 44.6751 61.5246 44.6751 60.9557C44.6751 60.3868 44.2848 59.9258 43.8035 59.9258Z" fill="#754DE8" stroke="#754DE8"/>
<path d="M43.8035 65.0363H34.7779C34.2964 65.0363 33.9062 65.4973 33.9062 66.0662C33.9062 66.6351 34.2964 67.0962 34.7779 67.0962H43.8035C44.285 67.0962 44.6751 66.6351 44.6751 66.0662C44.6751 65.4973 44.2848 65.0363 43.8035 65.0363Z" fill="#754DE8" stroke="#754DE8"/>
<path d="M43.8035 70.1469H34.7779C34.2964 70.1469 33.9062 70.6079 33.9062 71.1768C33.9062 71.7457 34.2964 72.2068 34.7779 72.2068H43.8035C44.285 72.2068 44.6751 71.7457 44.6751 71.1768C44.6751 70.6079 44.2848 70.1469 43.8035 70.1469Z" fill="#754DE8" stroke="#754DE8"/>
<path d="M68.6628 23.2632H61.0341V16.5739C61.0341 16.3007 60.9422 16.0387 60.7788 15.8456L48.3176 1.12273C48.1542 0.929658 47.9325 0.821045 47.7013 0.821045H16.3503C15.8689 0.821045 15.4787 1.28209 15.4787 1.851V50.3712H1.8716C1.39016 50.3712 1 50.8322 1 51.4011V80.4647C1 81.0336 1.39016 81.4947 1.8716 81.4947H50.5727C51.0541 81.4947 51.4443 81.0336 51.4443 80.4647V73.5399H60.1625C60.644 73.5399 61.0341 73.0788 61.0341 72.5099V40.2104H68.6628C69.9515 40.2104 71 38.9715 71 37.4486V26.0251C71 24.5021 69.9517 23.2632 68.6628 23.2632ZM48.5731 4.33731L58.0582 15.544H48.5731V4.33731ZM49.7011 79.435H2.7432V52.4311H49.7011V79.435ZM59.2909 71.48H51.4443V51.4011C51.4443 50.8322 51.0541 50.3712 50.5727 50.3712H17.2219V2.88095H46.8299V16.5739C46.8299 17.1428 47.22 17.6039 47.7015 17.6039H59.2909V23.2632H49.5938C48.3051 23.2632 47.2566 24.5021 47.2566 26.0249V37.4484C47.2566 38.9713 48.3051 40.2102 49.5938 40.2102H59.2909V71.48V71.48ZM69.2568 37.4486C69.2568 37.8357 68.9904 38.1505 68.6628 38.1505H49.5938C49.2662 38.1505 48.9998 37.8357 48.9998 37.4486V26.0251C48.9998 25.6381 49.2662 25.3233 49.5938 25.3233H68.6628C68.9904 25.3233 69.2568 25.6381 69.2568 26.0251V37.4486Z" fill="#754DE8" stroke="#754DE8"/>
<path d="M66.3682 28.9292H60.7271C60.2456 28.9292 59.8555 29.3902 59.8555 29.9592C59.8555 30.5281 60.2456 30.9891 60.7271 30.9891H66.3682C66.8497 30.9891 67.2398 30.5281 67.2398 29.9592C67.2398 29.3902 66.8497 28.9292 66.3682 28.9292Z" fill="#754DE8" stroke="#754DE8"/>
<path d="M66.3682 32.4843H60.7271C60.2456 32.4843 59.8555 32.9453 59.8555 33.5142C59.8555 34.0831 60.2456 34.5442 60.7271 34.5442H66.3682C66.8497 34.5442 67.2398 34.0831 67.2398 33.5142C67.2398 32.9453 66.8497 32.4843 66.3682 32.4843Z" fill="#754DE8" stroke="#754DE8"/>
<path d="M9.72614 48.5721C9.832 49.0159 10.1748 49.3225 10.5649 49.3225C10.9551 49.3225 11.2979 49.0159 11.4037 48.5721L12.9885 41.9306C13.0102 41.8396 13.0213 41.7456 13.0213 41.651V6.72002C13.0213 6.15111 12.6311 5.69006 12.1497 5.69006H8.98021C8.49877 5.69006 8.10861 6.15111 8.10861 6.72002V41.6512C8.10861 41.7457 8.11955 41.8397 8.14142 41.9308L9.72614 48.5721ZM10.1317 42.6811H10.9984L10.5649 44.4974L10.1317 42.6811ZM11.2781 7.74997V40.6212H9.85181V7.74997H11.2781Z" fill="#754DE8" stroke="#754DE8"/>
<path d="M1.8716 49.3226H5.04106C5.5225 49.3226 5.91266 48.8616 5.91266 48.2927V13.3615C5.91266 13.267 5.90172 13.173 5.87985 13.0819L4.29513 6.44043C4.18927 5.99662 3.84649 5.69006 3.45633 5.69006C3.06617 5.69006 2.72339 5.99662 2.61753 6.44043L1.0328 13.0819C1.01093 13.173 1 13.267 1 13.3615V48.2927C1 48.8614 1.39016 49.3226 1.8716 49.3226ZM2.7432 47.2627V14.3915H4.16946V47.2627H2.7432ZM3.88975 12.3316H3.02291L3.45633 10.5153L3.88975 12.3316Z" fill="#754DE8" stroke="#754DE8"/>
</svg>
