<svg width="70" height="78" viewBox="0 0 70 78" fill="none" xmlns="http://www.w3.org/2000/svg">
<g clip-path="url(#clip0_1_114)">
<path d="M60.55 41.3224C61.7651 41.3224 62.9644 41.017 64.0581 40.4293C65.1517 39.8415 66.1113 38.9865 66.8649 37.9285C67.6184 36.8705 68.1464 35.6369 68.4092 34.3202C68.6721 33.0034 68.6629 31.6377 68.3825 30.3255C68.102 29.0132 67.5576 27.7884 66.7899 26.743C66.0223 25.6975 65.0513 24.8585 63.9499 24.2889C62.8485 23.7192 61.6452 23.4337 60.4303 23.4537C59.2153 23.4738 58.0202 23.7988 56.9345 24.4045C57.4707 23.3355 57.7515 22.1318 57.75 20.9083C57.75 16.6351 54.3025 13.1388 50.05 13.1388C48.0525 13.1212 46.1199 13.9252 44.625 15.3959C44.7391 14.8533 44.7978 14.2981 44.8 13.741C44.8 8.8074 40.411 4.80615 35 4.80615C29.589 4.80615 25.2 8.8074 25.2 13.741C25.2009 14.3046 25.2596 14.8664 25.375 15.4153C23.8801 13.9446 21.9475 13.1406 19.95 13.1583C15.6975 13.1583 12.25 16.6545 12.25 20.9277C12.2485 22.1513 12.5292 23.3549 13.0655 24.4239C11.9797 23.8109 10.7827 23.4794 9.56472 23.4544C8.34673 23.4293 7.13951 23.7114 6.03402 24.2794C4.92853 24.8474 3.95359 25.6865 3.18268 26.7334C2.41177 27.7803 1.86498 29.0078 1.58352 30.3233C1.30207 31.6388 1.29327 33.0081 1.55781 34.3279C1.82235 35.6477 2.35332 36.8837 3.1107 37.9427C3.86809 39.0017 4.83215 39.8561 5.93024 40.4415C7.02833 41.027 8.2318 41.3282 9.44998 41.3224C9.56898 41.3224 9.68448 41.3224 9.79998 41.3224L60.2 41.3224C60.3155 41.3224 60.431 41.3224 60.55 41.3224Z" stroke="#7E1CFE" stroke-width="3" stroke-linejoin="bevel"/>
<path d="M3.75903 26.2731C2.24922 27.9488 1.40102 30.2217 1.40102 32.5915C1.40102 34.9614 2.24922 37.2343 3.75903 38.91C5.26884 40.5858 7.31659 41.5272 9.45178 41.5272C11.587 41.5272 13.6347 40.5858 15.1445 38.91L15.1445 33.9026" stroke="#7E1CFE" stroke-width="3" stroke-miterlimit="10"/>
<path d="M66.241 25.8846C67.7239 27.5661 68.5493 29.8288 68.5382 32.1817C68.527 34.5345 67.6801 36.7875 66.1814 38.4515C64.6826 40.1155 62.653 41.0562 60.5331 41.0693C58.4133 41.0824 56.3744 40.1669 54.859 38.5216L54.859 34.2018" stroke="#7E1CFE" stroke-width="3" stroke-miterlimit="10"/>
<path d="M36.75 41.3224L36.75 31.6107L26.334 19.2767" stroke="#7E1CFE" stroke-width="3" stroke-miterlimit="10"/>
<path d="M39.6725 17.614L30.996 24.4045" stroke="#7E1CFE" stroke-width="3" stroke-miterlimit="10"/>
<path d="M13.0655 24.4045L18.9 29.0856" stroke="#7E1CFE" stroke-width="3" stroke-miterlimit="10"/>
<path d="M56.8785 24.4045L52.15 27.726L45.15 27.726" stroke="#7E1CFE" stroke-width="3" stroke-miterlimit="10"/>
<path d="M35 59.1921L35 40.5455" stroke="#7E1CFE" stroke-width="3" stroke-miterlimit="10"/>
<path d="M24.15 41.7109L24.15 51.0342L16.5655 55.6959" stroke="#7E1CFE" stroke-width="3" stroke-miterlimit="10"/>
<path d="M45.5 41.7109L45.5 51.0342L53.0845 55.6959" stroke="#7E1CFE" stroke-width="3" stroke-miterlimit="10"/>
<path d="M29.4 66.5731C29.4 70.0058 31.9072 72.7886 35 72.7886C38.0928 72.7886 40.6 70.0058 40.6 66.5731C40.6 63.1403 38.0928 60.3575 35 60.3575C31.9072 60.3575 29.4 63.1403 29.4 66.5731Z" stroke="#EA0022" stroke-width="3" stroke-miterlimit="10"/>
<path d="M4.89998 58.0267C4.89998 61.4594 7.40718 64.2422 10.5 64.2422C13.5928 64.2422 16.1 61.4594 16.1 58.0267C16.1 54.5939 13.5928 51.8112 10.5 51.8112C7.40718 51.8112 4.89998 54.5939 4.89998 58.0267Z" stroke="#EA0022" stroke-width="3" stroke-miterlimit="10"/>
<path d="M53.9 58.0267C53.9 61.4594 56.4072 64.2422 59.5 64.2422C62.5928 64.2422 65.1 61.4594 65.1 58.0267C65.1 54.5939 62.5928 51.8112 59.5 51.8112C56.4072 51.8112 53.9 54.5939 53.9 58.0267Z" stroke="#EA0022" stroke-width="3" stroke-miterlimit="10"/>
</g>
<defs>
<clipPath id="clip0_1_114">
<rect width="77.6941" height="70" fill="white" transform="translate(70 0.144531) rotate(90)"/>
</clipPath>
</defs>
</svg>
