<svg width="70" height="78" viewBox="0 0 70 78" fill="none" xmlns="http://www.w3.org/2000/svg">
<path d="M41.4579 66.3041H42.1404V64.3041V30.462C42.1404 28.873 40.925 27.2656 39.0495 27.2656H37.8718C41.147 25.9854 43.3636 22.582 43.3636 18.8247C43.3636 14.0496 39.7833 9.84608 35 9.84608C30.2167 9.84608 26.6364 14.0496 26.6364 18.8247C26.6364 22.582 28.853 25.9854 32.1282 27.2656H30.9513C29.0741 27.2656 27.8604 28.8739 27.8604 30.462V64.3041C27.8604 65.8922 29.0741 67.5004 30.9513 67.5004H39.048C40.0849 67.5004 40.9188 67.0102 41.4579 66.3041ZM2 38.6736C2 18.4022 16.9447 2.29102 35 2.29102C53.056 2.29102 68 18.4022 68 38.6736C68 58.9451 53.056 75.0563 35 75.0563C16.9447 75.0563 2 58.9451 2 38.6736Z" stroke="#754DE8" stroke-width="4"/>
</svg>
